<?xml version="1.0" encoding="UTF-8" standalone="no"?>
<svg width="49px" height="50px" viewBox="0 0 49 50" version="1.1" xmlns="http://www.w3.org/2000/svg" xmlns:xlink="http://www.w3.org/1999/xlink" xmlns:sketch="http://www.bohemiancoding.com/sketch/ns">
    <!-- Generator: Sketch 3.1.1 (8761) - http://www.bohemiancoding.com/sketch -->
    <title>robot-black</title>
    <desc>Created with Sketch.</desc>
    <defs></defs>
    <g id="Page-1" stroke="none" stroke-width="1" fill="none" fill-rule="evenodd" sketch:type="MSPage">
        <g id="Desktop" sketch:type="MSArtboardGroup" transform="translate(-20.000000, -13.000000)" fill="#000000">
            <g id="robot-black" sketch:type="MSLayerGroup" transform="translate(20.000000, 13.000000)">
                <g id="Your_Icon" sketch:type="MSShapeGroup">
                    <g id="g3285" transform="translate(0.000000, 15.000000)">
                        <g id="g3287">
                            <g id="g3289">
                                <path d="M42.5713021,0 L6.66859375,0 C2.98542708,0 0,3.0955 0,6.778 L0,25.5 L49,25.5 L49,6.778 C49,3.0955 46.2549792,0 42.5713021,0 L42.5713021,0 Z M13.5842292,15.2125 C11.1602604,15.2125 9.19566667,13.248 9.19566667,10.825 C9.19566667,8.402 11.1602604,6.437 13.5842292,6.437 C16.0081979,6.437 17.9722813,8.402 17.9722813,10.825 C17.9722813,13.248 16.0081979,15.2125 13.5842292,15.2125 L13.5842292,15.2125 Z M36.0277604,15.2125 C33.6043021,15.2125 31.6391979,13.248 31.6391979,10.825 C31.6391979,8.402 33.6043021,6.437 36.0277604,6.437 C38.4507083,6.437 40.4158125,8.402 40.4158125,10.825 C40.4158125,13.248 38.4507083,15.2125 36.0277604,15.2125 L36.0277604,15.2125 Z" id="path3291"></path>
                            </g>
                        </g>
                    </g>
                    <g id="g3293" transform="translate(7.656250, 42.000000)">
                        <g id="g3295">
                            <g id="g3297">
                                <path d="M1.61751042,0.2215 L31.9342187,0.2215 C32.8039687,0.2215 33.5078333,0.926 33.5078333,1.795 C33.5078333,2.6645 32.8039687,3.369 31.9342187,3.369 L1.61751042,3.369 C0.748270833,3.369 0.0433854167,2.6645 0.0433854167,1.795 C0.0433854167,0.9265 0.748270833,0.2215 1.61751042,0.2215 L1.61751042,0.2215 Z" id="path3299"></path>
                            </g>
                        </g>
                    </g>
                    <g id="g3301" transform="translate(12.760417, 47.000000)">
                        <g id="g3303">
                            <g id="g3305">
                                <path d="M1.63996875,-0.1755 L21.9749688,-0.1755 C22.8447188,-0.1755 23.5490938,0.5295 23.5490938,1.399 C23.5490938,2.2685 22.8447188,2.9725 21.9749688,2.9725 L1.63996875,2.9725 C0.770729167,2.9725 0.06584375,2.2685 0.06584375,1.399 C0.06584375,0.5295 0.770729167,-0.1755 1.63996875,-0.1755 L1.63996875,-0.1755 Z" id="path3307"></path>
                            </g>
                        </g>
                    </g>
                    <g id="g3309" transform="translate(21.947917, 0.000000)">
                        <g id="g3311">
                            <g id="g3313">
                                <path d="M6.23320833,3.205 C6.23320833,1.435 4.84436458,0 3.07372917,0 C1.304625,0 0.000510416667,1.435 0.000510416667,3.205 C0.000510416667,4.3055 0.510416667,5.276 1.53125,5.853 L1.53125,11.3065 C1.53125,12.241 2.12894792,12.998 3.0625,12.998 C3.99707292,12.998 4.59375,12.241 4.59375,11.3065 L4.59375,5.944 C5.61458333,5.382 6.23320833,4.3675 6.23320833,3.205 L6.23320833,3.205 Z" id="path3315"></path>
                            </g>
                        </g>
                    </g>
                </g>
            </g>
        </g>
    </g>
</svg>